<svg width="75" height="75" viewBox="0 0 75 75" fill="none" xmlns="http://www.w3.org/2000/svg">
<g id="eos-icons:templates-outlined">
<path id="Vector" d="M62.5 0H12.5C10.8424 0 9.25268 0.65848 8.08058 1.83058C6.90848 3.00269 6.25 4.5924 6.25 6.25V68.75C6.25 70.4076 6.90848 71.9973 8.08058 73.1694C9.25268 74.3415 10.8424 75 12.5 75H62.5C64.1576 75 65.7473 74.3415 66.9194 73.1694C68.0915 71.9973 68.75 70.4076 68.75 68.75V6.25C68.75 4.5924 68.0915 3.00269 66.9194 1.83058C65.7473 0.65848 64.1576 0 62.5 0ZM62.5 68.75H12.5V6.25H62.5V68.75Z" fill="black"/>
<path id="Vector_2" d="M18.75 12.5H56.25V18.75H18.75V12.5ZM18.75 25H40.625V31.25H18.75V25ZM25 62.5H50L37.5 53.125L25 62.5ZM59.375 59.375V40.625L43.75 50L59.375 59.375ZM18.75 40.625V59.375L31.25 50L18.75 40.625ZM50 37.5H25L37.5 46.875L50 37.5Z" fill="black"/>
</g>
</svg>
