<svg width="122" height="122" viewBox="0 0 122 122" fill="none" xmlns="http://www.w3.org/2000/svg">
<g id="healthicons:referral" clip-path="url(#clip0_177_1820)">
<g id="Group">
<path id="Vector" fill-rule="evenodd" clip-rule="evenodd" d="M27.9583 16.7392C26.6102 16.7392 25.3172 17.2748 24.3639 18.2281C23.4106 19.1814 22.875 20.4744 22.875 21.8226V24.3642H10.1667V72.6559H66.0833V24.3642H53.375V21.8226C53.375 20.4744 52.8394 19.1814 51.8861 18.2281C50.9328 17.2748 49.6399 16.7392 48.2917 16.7392H27.9583ZM48.2917 47.2392C49.6399 47.2392 50.9328 46.7037 51.8861 45.7504C52.8394 44.7971 53.375 43.5041 53.375 42.1559V39.6142H61V67.5726H48.2917V52.3226H27.9583V67.5726H15.25V39.6142H22.875V42.1559C22.875 43.5041 23.4106 44.7971 24.3639 45.7504C25.3172 46.7037 26.6102 47.2392 27.9583 47.2392H48.2917ZM15.25 29.4476H22.875V34.5309H15.25V29.4476ZM61 34.5309H53.375V29.4476H61V34.5309ZM43.2083 57.4059V67.5726H33.0417V57.4059H43.2083Z" fill="black"/>
<path id="Vector_2" d="M76.2501 68.6247C76.2501 65.9283 77.3212 63.3424 79.2278 61.4358C81.1345 59.5291 83.7204 58.458 86.4168 58.458C89.1131 58.458 91.6991 59.5291 93.6057 61.4358C95.5123 63.3424 96.5834 65.9283 96.5834 68.6247C96.5834 71.321 95.5123 73.907 93.6057 75.8136C91.6991 77.7202 89.1131 78.7913 86.4168 78.7913C83.7204 78.7913 81.1345 77.7202 79.2278 75.8136C77.3212 73.907 76.2501 71.321 76.2501 68.6247ZM86.4168 83.8747C79.6305 83.8747 66.0834 87.5906 66.0834 94.9665V101.666H43.2084C41.3555 101.666 40.1533 100.998 39.3883 100.136C38.5826 99.2289 38.1251 97.9479 38.1251 96.583V87.4686L46.4948 95.8383L50.0887 92.2444L35.5834 77.7391L21.0781 92.2444L24.672 95.8383L33.0417 87.4686V96.583C33.0417 99.0306 33.8551 101.562 35.591 103.514C37.3677 105.512 39.978 106.75 43.2084 106.75H106.75V94.9665C106.75 87.5906 93.203 83.8747 86.4168 83.8747Z" fill="black"/>
</g>
</g>
<defs>
<clipPath id="clip0_177_1820">
<rect width="122" height="122" fill="white"/>
</clipPath>
</defs>
</svg>
