<svg width="82" height="82" viewBox="0 0 82 82" fill="none" xmlns="http://www.w3.org/2000/svg">
<g id="raphael:books">
<path id="Vector" d="M68.3674 20.1364C68.1518 19.9632 67.8931 19.8519 67.6192 19.8144C67.3452 19.777 67.0661 19.8147 66.812 19.9237L42.0582 30.6426C40.982 31.1115 39.6341 31.3345 38.2503 31.3345C36.3208 31.3422 34.3246 30.8937 32.9331 30.2839C32.5091 30.1053 32.1054 29.8819 31.7288 29.6176C31.8313 29.5664 31.9594 29.51 32.1003 29.4536L54.6145 19.7059L57.9713 21.1409V16.946C57.9764 16.6469 57.9138 16.3505 57.7882 16.0789C57.6626 15.8074 57.4773 15.5677 57.2461 15.3778C57.0314 15.2048 56.7737 15.0936 56.5005 15.0561C56.2274 15.0187 55.9492 15.0563 55.6958 15.1651L30.9421 25.884C30.1785 26.1915 29.5225 26.5708 28.969 27.1217C28.328 27.7541 27.964 28.6148 27.9568 29.5151C27.9568 29.5407 27.9645 29.5843 27.9645 29.5843V67.3299L27.9593 67.3812C27.9593 67.3914 27.967 67.3965 27.967 67.4068V67.4478H27.9721C28.0234 68.7675 28.6896 69.608 29.3251 70.2025C31.3239 71.9655 34.6808 72.952 38.2529 73.0033C39.9441 73.0033 41.661 72.747 43.2498 72.0654L68.0112 61.3439C68.6646 61.062 69.0926 60.3625 69.0926 59.5707V21.7046C69.0965 21.4056 69.0334 21.1096 68.9079 20.8382C68.7824 20.5668 68.5977 20.327 68.3674 20.1364ZM52.667 12.9614C52.6234 12.3976 52.3902 11.8595 51.9751 11.5366C51.7595 11.3634 51.5008 11.2522 51.2268 11.2147C50.9528 11.1772 50.6738 11.215 50.4196 11.3239L25.6659 22.0377C24.5896 22.5041 23.2392 22.7296 21.858 22.7296C19.9285 22.7347 17.9323 22.2863 16.5408 21.6739C16.1164 21.4982 15.7125 21.2765 15.3365 21.0127C15.439 20.9615 15.5671 20.9051 15.708 20.8487L38.2247 11.101L41.5816 12.536V8.3463C41.5861 8.04697 41.5231 7.75048 41.3971 7.47894C41.271 7.2074 41.0854 6.96781 40.8538 6.77805C40.6386 6.60509 40.3804 6.49393 40.1069 6.45646C39.8333 6.419 39.5547 6.45664 39.301 6.56536L14.5472 17.2869C13.7836 17.5944 13.1301 17.971 12.5741 18.5245C11.9341 19.1573 11.571 20.018 11.5645 20.9179C11.5645 20.9487 11.5721 20.9897 11.5721 20.9897V58.8557H11.5773C11.6285 60.1754 12.2948 61.0159 12.9303 61.6104C14.929 63.3734 18.2859 64.3574 21.8606 64.4087C22.8314 64.4029 23.799 64.2982 24.7485 64.096V29.5817C24.7229 27.788 25.4404 26.066 26.7011 24.8257C27.5746 23.9785 28.6124 23.3192 29.7505 22.8885L52.667 12.9614Z" fill="black"/>
</g>
</svg>
